<mxfile host="app.diagrams.net" modified="2022-11-26T18:41:19.201Z" agent="5.0 (Windows NT 10.0; Win64; x64) AppleWebKit/537.36 (KHTML, like Gecko) Chrome/107.0.0.0 Safari/537.36" version="20.6.0" etag="B7O8n7pEoucw4FaRjYIX" type="github">
  <diagram id="FG2hpKhz_viDtQdaoxQ8" name="페이지-1">
    <mxGraphModel dx="1422" dy="754" grid="1" gridSize="10" guides="1" tooltips="1" connect="1" arrows="1" fold="1" page="1" pageScale="1" pageWidth="827" pageHeight="1169" math="0" shadow="0">
      <root>
        <mxCell id="0" />
        <mxCell id="1" parent="0" />
        <mxCell id="b0fOjceG6WmwraX2Qp6_-1" value="" style="rounded=0;whiteSpace=wrap;html=1;fillColor=#dae8fc;strokeColor=#6c8ebf;dashed=1;" vertex="1" parent="1">
          <mxGeometry x="210" y="410" width="230" height="140" as="geometry" />
        </mxCell>
        <mxCell id="b0fOjceG6WmwraX2Qp6_-2" value="" style="rounded=0;whiteSpace=wrap;html=1;fillColor=#dae8fc;strokeColor=#6c8ebf;dashed=1;" vertex="1" parent="1">
          <mxGeometry x="450" y="410" width="290" height="300" as="geometry" />
        </mxCell>
        <mxCell id="b0fOjceG6WmwraX2Qp6_-3" value="motor value converter" style="whiteSpace=wrap;html=1;shadow=1;fontSize=18;fillColor=#f5f5f5;strokeColor=#666666;" vertex="1" parent="1">
          <mxGeometry x="790" y="480" width="207" height="56" as="geometry" />
        </mxCell>
        <mxCell id="b0fOjceG6WmwraX2Qp6_-4" value="" style="group" vertex="1" connectable="0" parent="1">
          <mxGeometry x="760" y="570" width="267" height="116" as="geometry" />
        </mxCell>
        <mxCell id="b0fOjceG6WmwraX2Qp6_-5" value="ROS&lt;br&gt;Controller" style="whiteSpace=wrap;html=1;shadow=1;fontSize=18;fillColor=#f5f5f5;strokeColor=#666666;" vertex="1" parent="b0fOjceG6WmwraX2Qp6_-4">
          <mxGeometry width="207" height="56" as="geometry" />
        </mxCell>
        <mxCell id="b0fOjceG6WmwraX2Qp6_-6" value="ROS&lt;br&gt;Controller" style="whiteSpace=wrap;html=1;shadow=1;fontSize=18;fillColor=#f5f5f5;strokeColor=#666666;" vertex="1" parent="b0fOjceG6WmwraX2Qp6_-4">
          <mxGeometry x="10" y="10" width="207" height="56" as="geometry" />
        </mxCell>
        <mxCell id="b0fOjceG6WmwraX2Qp6_-7" value="ROS&lt;br&gt;Controller" style="whiteSpace=wrap;html=1;shadow=1;fontSize=18;fillColor=#f5f5f5;strokeColor=#666666;" vertex="1" parent="b0fOjceG6WmwraX2Qp6_-4">
          <mxGeometry x="20" y="20" width="207" height="56" as="geometry" />
        </mxCell>
        <mxCell id="b0fOjceG6WmwraX2Qp6_-8" value="ROS&lt;br&gt;Controller" style="whiteSpace=wrap;html=1;shadow=1;fontSize=18;fillColor=#f5f5f5;strokeColor=#666666;" vertex="1" parent="b0fOjceG6WmwraX2Qp6_-4">
          <mxGeometry x="30" y="30" width="207" height="56" as="geometry" />
        </mxCell>
        <mxCell id="b0fOjceG6WmwraX2Qp6_-9" value="ROS&lt;br&gt;Controller" style="whiteSpace=wrap;html=1;shadow=1;fontSize=18;fillColor=#f5f5f5;strokeColor=#666666;" vertex="1" parent="b0fOjceG6WmwraX2Qp6_-4">
          <mxGeometry x="40" y="40" width="207" height="56" as="geometry" />
        </mxCell>
        <mxCell id="b0fOjceG6WmwraX2Qp6_-10" value="ROS&lt;br&gt;Controller" style="whiteSpace=wrap;html=1;shadow=1;fontSize=18;fillColor=#f5f5f5;strokeColor=#666666;" vertex="1" parent="b0fOjceG6WmwraX2Qp6_-4">
          <mxGeometry x="50" y="50" width="207" height="56" as="geometry" />
        </mxCell>
        <mxCell id="b0fOjceG6WmwraX2Qp6_-11" value="ROS&lt;br&gt;Controller" style="whiteSpace=wrap;html=1;shadow=1;fontSize=18;fillColor=#f5f5f5;strokeColor=#666666;" vertex="1" parent="b0fOjceG6WmwraX2Qp6_-4">
          <mxGeometry x="60" y="60" width="207" height="56" as="geometry" />
        </mxCell>
        <mxCell id="b0fOjceG6WmwraX2Qp6_-12" style="edgeStyle=orthogonalEdgeStyle;rounded=0;orthogonalLoop=1;jettySize=auto;html=1;exitX=0.5;exitY=1;exitDx=0;exitDy=0;entryX=0.643;entryY=0;entryDx=0;entryDy=0;entryPerimeter=0;" edge="1" parent="1" source="b0fOjceG6WmwraX2Qp6_-3" target="b0fOjceG6WmwraX2Qp6_-5">
          <mxGeometry relative="1" as="geometry" />
        </mxCell>
        <mxCell id="b0fOjceG6WmwraX2Qp6_-13" value="" style="group" vertex="1" connectable="0" parent="1">
          <mxGeometry x="220" y="740" width="267" height="116" as="geometry" />
        </mxCell>
        <mxCell id="b0fOjceG6WmwraX2Qp6_-14" value="ROS&lt;br&gt;Controller" style="whiteSpace=wrap;html=1;shadow=1;fontSize=18;fillColor=#f5f5f5;strokeColor=#666666;" vertex="1" parent="b0fOjceG6WmwraX2Qp6_-13">
          <mxGeometry width="207" height="56" as="geometry" />
        </mxCell>
        <mxCell id="b0fOjceG6WmwraX2Qp6_-15" value="ROS&lt;br&gt;Controller" style="whiteSpace=wrap;html=1;shadow=1;fontSize=18;fillColor=#f5f5f5;strokeColor=#666666;" vertex="1" parent="b0fOjceG6WmwraX2Qp6_-13">
          <mxGeometry x="10" y="10" width="207" height="56" as="geometry" />
        </mxCell>
        <mxCell id="b0fOjceG6WmwraX2Qp6_-16" value="ROS&lt;br&gt;Controller" style="whiteSpace=wrap;html=1;shadow=1;fontSize=18;fillColor=#f5f5f5;strokeColor=#666666;" vertex="1" parent="b0fOjceG6WmwraX2Qp6_-13">
          <mxGeometry x="20" y="20" width="207" height="56" as="geometry" />
        </mxCell>
        <mxCell id="b0fOjceG6WmwraX2Qp6_-17" value="ROS&lt;br&gt;Controller" style="whiteSpace=wrap;html=1;shadow=1;fontSize=18;fillColor=#f5f5f5;strokeColor=#666666;" vertex="1" parent="b0fOjceG6WmwraX2Qp6_-13">
          <mxGeometry x="30" y="30" width="207" height="56" as="geometry" />
        </mxCell>
        <mxCell id="b0fOjceG6WmwraX2Qp6_-18" value="ROS&lt;br&gt;Controller" style="whiteSpace=wrap;html=1;shadow=1;fontSize=18;fillColor=#f5f5f5;strokeColor=#666666;" vertex="1" parent="b0fOjceG6WmwraX2Qp6_-13">
          <mxGeometry x="40" y="40" width="207" height="56" as="geometry" />
        </mxCell>
        <mxCell id="b0fOjceG6WmwraX2Qp6_-19" value="ROS&lt;br&gt;Controller" style="whiteSpace=wrap;html=1;shadow=1;fontSize=18;fillColor=#f5f5f5;strokeColor=#666666;" vertex="1" parent="b0fOjceG6WmwraX2Qp6_-13">
          <mxGeometry x="50" y="50" width="207" height="56" as="geometry" />
        </mxCell>
        <mxCell id="b0fOjceG6WmwraX2Qp6_-20" value="eposx&lt;br&gt;hardware" style="whiteSpace=wrap;html=1;shadow=1;fontSize=18;fillColor=#f5f5f5;strokeColor=#666666;" vertex="1" parent="b0fOjceG6WmwraX2Qp6_-13">
          <mxGeometry x="60" y="60" width="207" height="56" as="geometry" />
        </mxCell>
        <mxCell id="b0fOjceG6WmwraX2Qp6_-21" style="edgeStyle=orthogonalEdgeStyle;rounded=0;orthogonalLoop=1;jettySize=auto;html=1;exitX=1;exitY=0.5;exitDx=0;exitDy=0;startArrow=none;startFill=0;endArrow=classic;endFill=1;" edge="1" parent="1" source="b0fOjceG6WmwraX2Qp6_-22" target="b0fOjceG6WmwraX2Qp6_-28">
          <mxGeometry relative="1" as="geometry" />
        </mxCell>
        <mxCell id="b0fOjceG6WmwraX2Qp6_-22" value="ft_sensors" style="whiteSpace=wrap;html=1;shadow=1;fontSize=18;fillColor=#f5f5f5;strokeColor=#666666;" vertex="1" parent="1">
          <mxGeometry x="220" y="553.63" width="207" height="56" as="geometry" />
        </mxCell>
        <mxCell id="b0fOjceG6WmwraX2Qp6_-23" value="&lt;h1&gt;Stewart&lt;/h1&gt;" style="text;html=1;strokeColor=none;fillColor=none;align=center;verticalAlign=middle;whiteSpace=wrap;rounded=0;dashed=1;" vertex="1" parent="1">
          <mxGeometry x="542.5" y="423.75" width="105" height="35.625" as="geometry" />
        </mxCell>
        <mxCell id="b0fOjceG6WmwraX2Qp6_-24" style="edgeStyle=orthogonalEdgeStyle;rounded=0;orthogonalLoop=1;jettySize=auto;html=1;exitX=1;exitY=0.5;exitDx=0;exitDy=0;entryX=0;entryY=0.5;entryDx=0;entryDy=0;startArrow=none;startFill=0;endArrow=classic;endFill=1;" edge="1" parent="1" source="b0fOjceG6WmwraX2Qp6_-26" target="b0fOjceG6WmwraX2Qp6_-3">
          <mxGeometry relative="1" as="geometry" />
        </mxCell>
        <mxCell id="b0fOjceG6WmwraX2Qp6_-25" style="edgeStyle=orthogonalEdgeStyle;rounded=0;orthogonalLoop=1;jettySize=auto;html=1;exitX=0;exitY=0.5;exitDx=0;exitDy=0;startArrow=none;startFill=0;endArrow=classic;endFill=1;" edge="1" parent="1" source="b0fOjceG6WmwraX2Qp6_-26" target="b0fOjceG6WmwraX2Qp6_-34">
          <mxGeometry relative="1" as="geometry" />
        </mxCell>
        <mxCell id="b0fOjceG6WmwraX2Qp6_-26" value="ik" style="whiteSpace=wrap;html=1;shadow=1;fontSize=18;fillColor=#f5f5f5;strokeColor=#666666;" vertex="1" parent="1">
          <mxGeometry x="491.5" y="480" width="207" height="56" as="geometry" />
        </mxCell>
        <mxCell id="b0fOjceG6WmwraX2Qp6_-27" style="edgeStyle=orthogonalEdgeStyle;rounded=0;orthogonalLoop=1;jettySize=auto;html=1;exitX=0.5;exitY=0;exitDx=0;exitDy=0;entryX=0.5;entryY=1;entryDx=0;entryDy=0;startArrow=none;startFill=0;endArrow=classic;endFill=1;" edge="1" parent="1" source="b0fOjceG6WmwraX2Qp6_-28" target="b0fOjceG6WmwraX2Qp6_-26">
          <mxGeometry relative="1" as="geometry" />
        </mxCell>
        <mxCell id="b0fOjceG6WmwraX2Qp6_-28" value="impedance_controller" style="whiteSpace=wrap;html=1;shadow=1;fontSize=18;fillColor=#f5f5f5;strokeColor=#666666;" vertex="1" parent="1">
          <mxGeometry x="491.5" y="553.63" width="207" height="56" as="geometry" />
        </mxCell>
        <mxCell id="b0fOjceG6WmwraX2Qp6_-29" style="edgeStyle=orthogonalEdgeStyle;rounded=0;orthogonalLoop=1;jettySize=auto;html=1;exitX=0.5;exitY=0;exitDx=0;exitDy=0;entryX=0.5;entryY=1;entryDx=0;entryDy=0;startArrow=none;startFill=0;endArrow=classic;endFill=1;" edge="1" parent="1" source="b0fOjceG6WmwraX2Qp6_-31" target="b0fOjceG6WmwraX2Qp6_-28">
          <mxGeometry relative="1" as="geometry" />
        </mxCell>
        <mxCell id="b0fOjceG6WmwraX2Qp6_-30" style="edgeStyle=orthogonalEdgeStyle;rounded=0;orthogonalLoop=1;jettySize=auto;html=1;exitX=1;exitY=0.5;exitDx=0;exitDy=0;entryX=0;entryY=0.5;entryDx=0;entryDy=0;startArrow=classic;startFill=1;endArrow=none;endFill=0;" edge="1" parent="1" source="b0fOjceG6WmwraX2Qp6_-31" target="b0fOjceG6WmwraX2Qp6_-11">
          <mxGeometry relative="1" as="geometry" />
        </mxCell>
        <mxCell id="b0fOjceG6WmwraX2Qp6_-31" value="fk" style="whiteSpace=wrap;html=1;shadow=1;fontSize=18;fillColor=#f5f5f5;strokeColor=#666666;" vertex="1" parent="1">
          <mxGeometry x="491.5" y="630" width="207" height="56" as="geometry" />
        </mxCell>
        <mxCell id="b0fOjceG6WmwraX2Qp6_-32" value="joy" style="whiteSpace=wrap;html=1;shadow=1;fontSize=18;fillColor=#f5f5f5;strokeColor=#666666;" vertex="1" parent="1">
          <mxGeometry x="220" y="609.63" width="207" height="56" as="geometry" />
        </mxCell>
        <mxCell id="b0fOjceG6WmwraX2Qp6_-33" style="edgeStyle=orthogonalEdgeStyle;rounded=0;orthogonalLoop=1;jettySize=auto;html=1;exitX=0.5;exitY=1;exitDx=0;exitDy=0;entryX=1;entryY=0.5;entryDx=0;entryDy=0;startArrow=none;startFill=0;endArrow=classic;endFill=1;" edge="1" parent="1" source="b0fOjceG6WmwraX2Qp6_-11" target="b0fOjceG6WmwraX2Qp6_-20">
          <mxGeometry relative="1" as="geometry" />
        </mxCell>
        <mxCell id="b0fOjceG6WmwraX2Qp6_-34" value="gazebo_controller" style="whiteSpace=wrap;html=1;shadow=1;fontSize=18;fillColor=#f5f5f5;strokeColor=#666666;" vertex="1" parent="1">
          <mxGeometry x="220" y="480" width="207" height="56" as="geometry" />
        </mxCell>
        <mxCell id="b0fOjceG6WmwraX2Qp6_-35" value="&lt;h1&gt;Simulation&lt;/h1&gt;" style="text;html=1;strokeColor=none;fillColor=none;align=center;verticalAlign=middle;whiteSpace=wrap;rounded=0;dashed=1;" vertex="1" parent="1">
          <mxGeometry x="257" y="423.75" width="136" height="35.63" as="geometry" />
        </mxCell>
      </root>
    </mxGraphModel>
  </diagram>
</mxfile>
